<svg id="Capa_1" enable-background="new 0 0 512 512" height="512" viewBox="0 0 512 512" width="512" xmlns="http://www.w3.org/2000/svg"><g><path d="m296.719 471.123 7.549 12.995 13.013-7.517-7.55-12.995z"/><path d="m512 254.999-92.763-53.409 92.726-53.738-162.828-94.054-7.548 12.995 140.366 81.08-77.741 45.054-148.205-85.78-148.224 85.448-77.701-44.737 225.918-130.502 71.579 41.346 7.548-12.995-79.127-45.707-256 147.879 255.993 147.852 148.215-85.442.009.005.01-.006 77.691 44.732-225.918 130.502-225.954-130.517 62.13-36.006-14.657-8.876-77.483 44.903 94.301 54.471-94.301 54.65 255.964 147.853 33.894-19.579-7.548-12.995-26.346 15.218-225.954-130.518 79.302-45.958 146.652 84.71 146.357-84.544 79.56 45.807-157.863 91.191 7.548 12.995 180.398-104.206-94.608-54.471zm-122.809-53.401-133.183 76.777-133.199-77.095 133.184-76.777z"/><path d="m231.721 66.242 13.021-7.546-7.566-12.984-13.021 7.546z"/><path d="m205.68 81.335 13.021-7.546-7.567-12.985-13.021 7.546z"/><path d="m365.131 251.322-13.038 7.516 7.538 13.002 13.038-7.516z"/><path d="m391.208 236.29-13.038 7.516 7.537 13.002 13.039-7.516z"/></g></svg>