<svg id="Capa_1" enable-background="new 0 0 512 512" height="512" viewBox="0 0 512 512" width="512" xmlns="http://www.w3.org/2000/svg"><g><g><g><g><g><g><circle cx="256" cy="256" fill="#fe6a16" r="256"/></g></g></g></g></g><path d="m512 256c0-7.096-.289-14.125-.855-21.075l-92.82-92.82-11.664 23.252-74.815-74.815-232.617 168.699 91.006 91.006-20.336 3.569-35.896-35.896-35.644 12.409-27.287 40.834 136.206 136.206c15.773 3.039 32.062 4.631 48.722 4.631 141.385 0 256-114.615 256-256z" fill="#e53b00"/><path d="m271 370.32v-129.034h-30v129.034c-15.352 6.015-26.257 20.964-26.257 38.422 0 22.75 18.507 41.258 41.257 41.258s41.257-18.508 41.257-41.257c0-17.459-10.905-32.408-26.257-38.423zm-15 49.68c-6.208 0-11.257-5.05-11.257-11.257s5.05-11.257 11.257-11.257 11.257 5.05 11.257 11.257-5.049 11.257-11.257 11.257z" fill="#b5efff"/><path d="m271 370.323v-129.037h-14.88v156.205c6.152.066 11.137 5.085 11.137 11.251s-4.985 11.186-11.137 11.251v30.003c22.694-.066 41.137-18.545 41.137-41.254 0-17.457-10.905-32.405-26.257-38.419z" fill="#80dbff"/><path d="m408.743 304.136c-17.458 0-32.408 10.905-38.422 26.257h-18.841v-80.393h-30v110.394h48.841c6.015 15.352 20.964 26.257 38.422 26.257 22.75 0 41.257-18.508 41.257-41.257s-18.508-41.258-41.257-41.258zm0 52.515c-6.208 0-11.257-5.05-11.257-11.257s5.05-11.257 11.257-11.257 11.257 5.05 11.257 11.257-5.05 11.257-11.257 11.257z" fill="#80dbff"/><path d="m190.521 250h-30v80.394h-18.841c-6.015-15.352-20.964-26.257-38.422-26.257-22.75 0-41.257 18.508-41.257 41.257s18.508 41.257 41.257 41.257c17.458 0 32.408-10.905 38.422-26.257h48.841zm-87.264 106.651c-6.208 0-11.257-5.05-11.257-11.257s5.05-11.257 11.257-11.257 11.257 5.05 11.257 11.257-5.049 11.257-11.257 11.257z" fill="#b5efff"/><g><path d="m360.364 278.619c44.494 0 80.564-36.07 80.564-80.564s-36.07-80.564-80.564-80.564c-4.082 0-8.092.31-12.011.895-14.364-36.982-50.295-63.2-92.353-63.2s-77.99 26.218-92.353 63.2c-3.919-.586-7.928-.895-12.011-.895-44.494 0-80.564 36.07-80.564 80.564s36.07 80.564 80.564 80.564z" fill="#fff"/></g><g><path d="m360.364 117.491c-4.082 0-8.092.31-12.01.895-14.35-36.946-50.226-63.147-92.233-63.197v223.43h104.243c44.494 0 80.564-36.07 80.564-80.564s-36.07-80.564-80.564-80.564z" fill="#e9edf5"/></g></g></svg>